<?xml version="1.0" encoding="utf-8"?>
<!-- Uploaded to: SVG Repo, www.svgrepo.com, Generator: SVG Repo Mixer Tools -->
<svg fill="#000000" width="800px" height="800px" viewBox="0 -2.5 37 37" version="1.1" xmlns="http://www.w3.org/2000/svg">
<title>bomb</title>
<path d="M33.228 7.928l3.284 0.464-2.92 1.546 2.117 1.934-3.065-0.387 1.897 3.945-3.795-2.862-3.139 3.79 1.46-4.717-4.599 2.475 3.211-3.48-0.22-0.856c-0.867 0.432-2.095 0.873-3.379 0.822-1.703 0-3.818-1.188-6.345-3.312 0 0-2.861-3.026-5.266-3.026-2.474 0-2.232 3.722-2.229 3.759h2.802v2.532c3.562 1.372 5.969 4.818 5.969 8.865 0 5.25-4.256 9.506-9.506 9.506s-9.505-4.258-9.505-9.508c0-4.046 2.469-7.493 6.031-8.865v-2.532h2.504c-0.003-0.019-0.288-2.744 1.15-4.256 0.767-0.806 1.704-1.209 2.813-1.209 3.337 0 6.332 3.512 6.332 3.512 2.195 1.884 3.985 2.825 5.37 2.825 0.562 0 1.706-0.354 2.294-0.549l-1.807-1.422 3.139 0.231-2.408-3.712 3.941 2.784 0.438-2.63 0.729 2.398 2.92-3.48-0.657 3.867 3.357-0.773-2.918 2.321z"></path>
</svg>